<?xml version="1.0" encoding="iso-8859-1"?>
<!-- Uploaded to: SVG Repo, www.svgrepo.com, Generator: SVG Repo Mixer Tools -->
<!DOCTYPE svg PUBLIC "-//W3C//DTD SVG 1.1//EN" "http://www.w3.org/Graphics/SVG/1.1/DTD/svg11.dtd">
<svg fill="#000000" height="800px" width="800px" version="1.1" id="Capa_1" xmlns="http://www.w3.org/2000/svg" xmlns:xlink="http://www.w3.org/1999/xlink" 
	 viewBox="0 0 464.329 464.329" xml:space="preserve">
<path d="M383.012,53.504c-5.667-5.666-13.2-8.787-21.213-8.786L253.654,44.72c-2.593,0-5.03-1.009-6.864-2.843
	c-1.833-1.834-2.843-4.271-2.843-6.871c0-13.785-11.215-25-25-25h-113.28V5c0-2.761-2.239-5-5-5H77.529c-2.761,0-5,2.239-5,5
	v454.329c0,2.761,2.239,5,5,5h23.138c2.761,0,5-2.239,5-5V205.126h112.601c8.157,0,14.801,6.548,14.983,14.663v1.337
	c0,0.384,0.052,0.754,0.135,1.114c1.058,9.876,9.438,17.594,19.59,17.594H361.8c11.028,0,20,8.972,20,20v0.003
	c0,2.761,2.239,4.999,5,4.999s5-2.24,5-5.001V74.718C391.799,66.705,388.679,59.171,383.012,53.504z M95.667,454.329H82.529V205.126
	h13.138V454.329z M361.8,229.833H252.975c-5.353,0-9.708-4.355-9.708-9.708c0-0.226-0.011-0.449-0.017-0.674V95.42
	c0-2.761-2.239-5-5-5s-5,2.239-5,5v104.706c-4.178-3.138-9.367-5-14.983-5H105.667V59.183c0-2.761-2.239-5-5-5s-5,2.239-5,5v135.943
	H82.529V10h13.138v19.165c0,2.761,2.239,5,5,5s5-2.239,5-5v-9.158h113.28c8.149,0,14.788,6.536,14.982,14.645
	c-0.009,0.122-0.036,0.238-0.036,0.361v26.36c0,2.761,2.239,5,5,5s5-2.239,5-5V52.12c2.943,1.686,6.279,2.6,9.762,2.6l108.145-0.001
	c5.342,0,10.365,2.08,14.143,5.857c3.778,3.778,5.858,8.8,5.858,14.143v162.772C376.488,232.731,369.476,229.833,361.8,229.833z"/>
</svg>